<svg width="16" height="16" viewBox="0 0 16 16" fill="none" xmlns="http://www.w3.org/2000/svg">
<rect width="16" height="16" fill="#EEEFFC"/>
<g id="Icons - 16px">
<path d="M-952 -412C-952 -418.627 -946.627 -424 -940 -424H218C224.627 -424 230 -418.627 230 -412V44C230 50.6274 224.627 56 218 56H-940C-946.627 56 -952 50.6274 -952 44V-412Z" fill="white"/>
<path d="M-940 -423H218V-425H-940V-423ZM229 -412V44H231V-412H229ZM218 55H-940V57H218V55ZM-951 44V-412H-953V44H-951ZM-940 55C-946.075 55 -951 50.0751 -951 44H-953C-953 51.1797 -947.18 57 -940 57V55ZM229 44C229 50.0751 224.075 55 218 55V57C225.18 57 231 51.1797 231 44H229ZM218 -423C224.075 -423 229 -418.075 229 -412H231C231 -419.18 225.18 -425 218 -425V-423ZM-940 -425C-947.18 -425 -953 -419.18 -953 -412H-951C-951 -418.075 -946.075 -423 -940 -423V-425Z" fill="black" fill-opacity="0.1"/>
<g id="timeline">
<path id="Vector" d="M4 2.5C4 2.36739 4.05268 2.24021 4.14645 2.14645C4.24021 2.05268 4.36739 2 4.5 2H6.5V4.5H4.5C4.36739 4.5 4.24021 4.44732 4.14645 4.35355C4.05268 4.25979 4 4.13261 4 4V2.5ZM6.5 6.5H1.5C1.36739 6.5 1.24021 6.55268 1.14645 6.64645C1.05268 6.74021 1 6.86739 1 7V8.5C1 8.63261 1.05268 8.75979 1.14645 8.85355C1.24021 8.94732 1.36739 9 1.5 9H6.5V6.5ZM9.5 9V6.5H11.5C11.6326 6.5 11.7598 6.55268 11.8536 6.64645C11.9473 6.74021 12 6.86739 12 7V8.5C12 8.63261 11.9473 8.75979 11.8536 8.85355C11.7598 8.94732 11.6326 9 11.5 9H9.5ZM6.5 11.5H3.5C3.36739 11.5 3.24021 11.5527 3.14645 11.6464C3.05268 11.7402 3 11.8674 3 12V13.5C3 13.6326 3.05268 13.7598 3.14645 13.8536C3.24021 13.9473 3.36739 14 3.5 14H6.5V11.5ZM9.5 14H14.5C14.6326 14 14.7598 13.9473 14.8536 13.8536C14.9473 13.7598 15 13.6326 15 13.5V12C15 11.8674 14.9473 11.7402 14.8536 11.6464C14.7598 11.5527 14.6326 11.5 14.5 11.5H9.5V14ZM9.5 4.5V2H12.5C12.6326 2 12.7598 2.05268 12.8536 2.14645C12.9473 2.24021 13 2.36739 13 2.5V4C13 4.13261 12.9473 4.25979 12.8536 4.35355C12.7598 4.44732 12.6326 4.5 12.5 4.5H9.5ZM8 1.25C8.19891 1.25 8.38968 1.32902 8.53033 1.46967C8.67098 1.61032 8.75 1.80109 8.75 2V14C8.75 14.1989 8.67098 14.3897 8.53033 14.5303C8.38968 14.671 8.19891 14.75 8 14.75C7.80109 14.75 7.61032 14.671 7.46967 14.5303C7.32902 14.3897 7.25 14.1989 7.25 14V2C7.25 1.80109 7.32902 1.61032 7.46967 1.46967C7.61032 1.32902 7.80109 1.25 8 1.25Z" fill="black"/>
</g>
</g>
</svg>
